<?xml version="1.0" encoding="UTF-8" standalone="no"?>
<svg
   xmlns:dc="http://purl.org/dc/elements/1.1/"
   xmlns:cc="http://creativecommons.org/ns#"
   xmlns:rdf="http://www.w3.org/1999/02/22-rdf-syntax-ns#"
   xmlns:svg="http://www.w3.org/2000/svg"
   xmlns="http://www.w3.org/2000/svg"
   xmlns:sodipodi="http://sodipodi.sourceforge.net/DTD/sodipodi-0.dtd"
   xmlns:inkscape="http://www.inkscape.org/namespaces/inkscape"
   height="283.42499"
   width="1277.8678"
   version="1.1"
   id="Layer_1"
   x="0px"
   y="0px"
   viewBox="0 0 1277.8678 283.42499"
   xml:space="preserve"
   sodipodi:docname="logo.svg"
   inkscape:version="1.0beta1 (32d4812, 2019-09-19)"><metadata
   id="metadata914">
  <rdf:RDF>
    <cc:Work
   rdf:about="">
      <dc:format>image/svg+xml</dc:format>

      <dc:type
   rdf:resource="http://purl.org/dc/dcmitype/StillImage" />

    </cc:Work>

  </rdf:RDF>

</metadata>

<defs
   id="defs912" />

<sodipodi:namedview
   pagecolor="#ffffff"
   bordercolor="#666666"
   inkscape:document-rotation="0"
   borderopacity="1"
   objecttolerance="10"
   gridtolerance="10"
   guidetolerance="10"
   inkscape:pageopacity="0"
   inkscape:pageshadow="2"
   inkscape:window-width="1440"
   inkscape:window-height="855"
   id="namedview910"
   showgrid="false"
   inkscape:zoom="0.35"
   inkscape:cx="340.46786"
   inkscape:cy="443.58214"
   inkscape:window-x="0"
   inkscape:window-y="23"
   inkscape:window-maximized="0"
   inkscape:current-layer="Layer_1" />


<style
   type="text/css"
   id="style833">
	.st0{fill:#FFFFFF;}
</style>


<g
   id="g845"
   transform="translate(-70.960714,-207.84643)">
	<path
   d="m 562.1,427.2 c -4.2,11.3 -10.2,21 -18,29.1 -7.8,8.1 -17.1,14.4 -28,18.8 -10.9,4.4 -22.9,6.7 -36,6.7 -20.4,0 -37.9,-5.1 -52.4,-15.2 -14.5,-10.1 -24,-23.9 -28.5,-41.5 h 29.6 c 2.9,6.4 6.5,11.6 11,15.5 4.4,3.9 9.2,6.8 14.2,8.8 5,2 9.8,3.3 14.5,4 4.7,0.7 8.5,1 11.7,1 10.9,0 20.1,-1.9 27.8,-5.8 7.7,-3.9 13.9,-8.9 18.6,-15 4.8,-6.1 8.2,-13 10.3,-20.8 2.1,-7.8 3.2,-15.5 3.2,-23.3 v -18 c -6.2,8.4 -14.4,15.6 -24.5,21.5 -10.1,5.9 -21.4,8.8 -33.8,8.8 -12.4,0 -23.9,-2.3 -34.3,-7 -10.4,-4.7 -19.5,-11.1 -27.1,-19.3 -7.6,-8.2 -13.7,-17.8 -18,-28.6 -4.3,-10.9 -6.5,-22.5 -6.5,-35 0,-12.5 2.2,-24.1 6.5,-35.1 4.3,-11 10.3,-20.5 18,-28.6 7.7,-8.1 16.7,-14.5 27.1,-19.3 10.4,-4.8 21.9,-7.2 34.3,-7.2 12.7,0 24.2,3.1 34.6,9.3 10.4,6.2 18.6,13.7 24.6,22.3 V 226 h 27.3 v 163.5 c 0.1,13.9 -2,26.4 -6.2,37.7 z M 535.5,287.4 c -3.1,-7.8 -7.3,-14.6 -12.7,-20.5 -5.3,-5.9 -11.5,-10.5 -18.5,-13.8 -7,-3.3 -14.5,-5 -22.5,-5 -8,0 -15.5,1.7 -22.6,5 -7.1,3.3 -13.2,7.9 -18.3,13.8 -5.1,5.9 -9.2,12.7 -12.2,20.5 -3,7.8 -4.5,16.1 -4.5,25 0,8.7 1.5,16.9 4.5,24.6 3,7.8 7,14.5 12.2,20.3 5.1,5.8 11.2,10.3 18.3,13.7 7.1,3.3 14.7,5 22.6,5 7.9,0 15.5,-1.7 22.5,-5 7,-3.3 13.2,-7.9 18.5,-13.7 5.3,-5.8 9.5,-12.5 12.7,-20.3 3.2,-7.8 4.7,-16 4.7,-24.6 -0.1,-8.9 -1.6,-17.3 -4.7,-25 z"
   id="path835"
   inkscape:connector-curvature="0" />


	<path
   d="M 733.6,397.6 V 370 c -6,8.9 -14.2,16.4 -24.6,22.6 -10.4,6.2 -22,9.3 -34.6,9.3 -12.4,0 -23.9,-2.3 -34.3,-7 -10.4,-4.7 -19.5,-11.1 -27.1,-19.3 -7.6,-8.2 -13.7,-17.8 -18,-28.6 -4.3,-10.9 -6.5,-22.5 -6.5,-35 0,-12.5 2.2,-24.1 6.5,-35.1 4.3,-11 10.3,-20.5 18,-28.6 7.7,-8.1 16.7,-14.5 27.1,-19.3 10.4,-4.8 21.9,-7.2 34.3,-7.2 12.7,0 24.2,3.1 34.6,9.3 10.4,6.2 18.6,13.7 24.6,22.3 v -27.3 h 27.3 v 171.5 z m -5.7,-109.9 c -3.1,-7.8 -7.3,-14.5 -12.7,-20.3 -5.3,-5.8 -11.5,-10.3 -18.5,-13.7 -7,-3.3 -14.5,-5 -22.5,-5 -8,0 -15.5,1.7 -22.6,5 -7.1,3.3 -13.2,7.9 -18.3,13.7 -5.1,5.8 -9.2,12.5 -12.2,20.3 -3,7.8 -4.5,16 -4.5,24.6 0,8.6 1.5,16.8 4.5,24.3 3,7.5 7,14.2 12.2,19.8 5.1,5.7 11.2,10.2 18.3,13.5 7.1,3.3 14.7,5 22.6,5 7.9,0 15.5,-1.7 22.5,-5 7,-3.3 13.2,-7.8 18.5,-13.5 5.3,-5.7 9.5,-12.3 12.7,-19.8 3.2,-7.5 4.7,-15.7 4.7,-24.3 0,-8.6 -1.6,-16.8 -4.7,-24.6 z"
   id="path837"
   inkscape:connector-curvature="0" />


	<path
   d="M 904.8,397.6 V 379 c -5.8,7.1 -12.9,12.7 -21.3,16.6 -8.4,3.9 -18,6 -28.6,6 -10.4,0 -19.8,-1.8 -28,-5.3 -8.2,-3.6 -15.2,-8.5 -20.8,-15 -5.7,-6.4 -9.9,-14 -12.8,-22.8 C 790.4,349.7 789,340 789,329.4 V 226.1 h 28 v 104.6 c 0,13.8 3.6,24.8 10.8,33 7.2,8.2 17.7,12.3 31.5,12.3 6.2,0 12,-1.1 17.5,-3.3 5.5,-2.2 10.2,-5.3 14.2,-9.3 4,-4 7.2,-8.7 9.5,-14.2 2.3,-5.4 3.5,-11.4 3.5,-17.8 V 226.1 h 28.3 v 171.5 z"
   id="path839"
   inkscape:connector-curvature="0" />


	<path
   d="m 1120.9,427.2 c -4.2,11.3 -10.2,21 -18,29.1 -7.8,8.1 -17.1,14.4 -28,18.8 -10.9,4.4 -22.9,6.7 -36,6.7 -20.4,0 -37.9,-5.1 -52.4,-15.2 -14.5,-10.1 -24,-23.9 -28.5,-41.5 h 29.6 c 2.9,6.4 6.5,11.6 11,15.5 4.4,3.9 9.2,6.8 14.2,8.8 5,2 9.8,3.3 14.5,4 4.7,0.7 8.5,1 11.7,1 10.9,0 20.1,-1.9 27.8,-5.8 7.7,-3.9 13.9,-8.9 18.6,-15 4.8,-6.1 8.2,-13 10.3,-20.8 2.1,-7.8 3.2,-15.5 3.2,-23.3 v -18 c -6.2,8.4 -14.4,15.6 -24.5,21.5 -10.1,5.9 -21.4,8.8 -33.8,8.8 -12.4,0 -23.9,-2.3 -34.3,-7 -10.4,-4.7 -19.5,-11.1 -27.1,-19.3 -7.7,-8.2 -13.7,-17.8 -18,-28.6 -4.3,-10.9 -6.5,-22.5 -6.5,-35 0,-12.5 2.2,-24.1 6.5,-35.1 4.3,-11 10.3,-20.5 18,-28.6 7.7,-8.1 16.7,-14.5 27.1,-19.3 10.4,-4.8 21.9,-7.2 34.3,-7.2 12.7,0 24.2,3.1 34.6,9.3 10.4,6.2 18.6,13.7 24.6,22.3 V 226 h 27.3 v 163.5 c 0.1,13.9 -2,26.4 -6.2,37.7 z m -26.7,-139.8 c -3.1,-7.8 -7.3,-14.6 -12.7,-20.5 -5.4,-5.9 -11.5,-10.5 -18.5,-13.8 -7,-3.3 -14.5,-5 -22.5,-5 -8,0 -15.5,1.7 -22.6,5 -7.1,3.3 -13.2,7.9 -18.3,13.8 -5.1,5.9 -9.2,12.7 -12.2,20.5 -3,7.8 -4.5,16.1 -4.5,25 0,8.7 1.5,16.9 4.5,24.6 3,7.7 7,14.5 12.2,20.3 5.1,5.8 11.2,10.3 18.3,13.7 7.1,3.3 14.7,5 22.6,5 8,0 15.5,-1.7 22.5,-5 7,-3.3 13.2,-7.9 18.5,-13.7 5.3,-5.8 9.5,-12.5 12.7,-20.3 3.1,-7.8 4.7,-16 4.7,-24.6 0,-8.9 -1.6,-17.3 -4.7,-25 z"
   id="path841"
   inkscape:connector-curvature="0" />


	<path
   d="m 1286,386.8 c -14,9.9 -31,14.8 -50.9,14.8 -12.4,0 -24,-2.3 -34.6,-7 -10.6,-4.7 -19.9,-11 -27.8,-19 -7.9,-8 -14.1,-17.4 -18.6,-28.3 -4.6,-10.9 -6.8,-22.6 -6.8,-35.3 0,-12.4 2.3,-24.1 6.8,-35.1 4.6,-11 10.7,-20.5 18.5,-28.6 7.8,-8.1 16.9,-14.5 27.3,-19.3 10.4,-4.8 21.6,-7.2 33.6,-7.2 11.1,0 21.9,2.2 32.3,6.7 10.4,4.4 19.7,10.9 27.8,19.3 8.1,8.4 14.5,18.6 19.3,30.6 4.8,12 7.2,25.6 7.2,41 h -144.2 c 0.9,8.9 3.2,16.8 6.8,23.8 3.7,7 8.2,12.9 13.7,17.8 5.5,4.9 11.5,8.6 18.1,11.2 6.7,2.6 13.5,3.8 20.6,3.8 12.2,0 22.6,-2.8 31.1,-8.3 8.5,-5.5 15.2,-13.3 19.8,-23.3 h 30 c -6,18.3 -16,32.5 -30,42.4 z m -5.5,-111.7 c -3.7,-5.8 -7.9,-10.7 -12.8,-14.8 -4.9,-4.1 -10.3,-7.3 -16.2,-9.5 -5.9,-2.2 -11.9,-3.3 -18.1,-3.3 -6,0 -11.9,1.1 -17.8,3.2 -5.9,2.1 -11.3,5.2 -16.3,9.2 -5,4 -9.4,8.9 -13.3,14.7 -3.9,5.8 -6.7,12.3 -8.5,19.6 h 111.2 c -1.8,-7 -4.5,-13.4 -8.2,-19.1 z"
   id="path843"
   inkscape:connector-curvature="0" />


</g>


<g
   id="g851"
   transform="translate(-56.675,-159.275)">
	<path
   d="M 311.8,442.7 H 85 C 69.3,442.7 56.7,430 56.7,414.4 v -99.2 c 0,-15.7 12.7,-28.3 28.3,-28.3 15.6,0 28.3,12.7 28.3,28.3 V 386 h 130 L 65,207.7 c -11.1,-11.1 -11.1,-29 0,-40.1 11.1,-11.1 29,-11.1 40.1,0 l 226.8,226.8 c 8.1,8.1 10.5,20.3 6.1,30.9 -4.4,10.6 -14.7,17.4 -26.2,17.4 z"
   id="path847"
   inkscape:connector-curvature="0" />


	<path
   d="m 311.8,301 c -7.3,0 -14.5,-2.8 -20,-8.3 l -85,-85 c -11.1,-11.1 -11.1,-29 0,-40.1 11.1,-11.1 29,-11.1 40.1,0 l 85,85 c 11.1,11.1 11.1,29 0,40.1 -5.6,5.5 -12.8,8.3 -20.1,8.3 z"
   id="path849"
   inkscape:connector-curvature="0" />


</g>


<g
   transform="translate(-59.532143,-116.41786)"
   id="g855">
	<path
   inkscape:connector-curvature="0"
   d="m 1317.9,176.6 h -4.9 v 14.8 h -2.8 v -14.8 h -5 V 174 h 12.7 z m 16.7,14.9 v -12.6 l -4.6,12.6 h -2.8 l -4.6,-12.6 v 12.6 h -2.8 V 174 h 3.7 l 5.1,14 5.1,-14 h 3.7 v 17.4 h -2.8 z"
   id="path853" />


</g>




</svg>
